<mxfile host="app.diagrams.net" modified="2023-05-26T09:51:33.743Z" agent="Mozilla/5.0 (Windows NT 10.0; Win64; x64) AppleWebKit/537.36 (KHTML, like Gecko) Chrome/113.0.0.0 Safari/537.36" etag="_0cGVyUpKQzu-JrdajwW" version="21.3.4" type="github">
  <diagram name="Page-1" id="efa7a0a1-bf9b-a30e-e6df-94a7791c09e9">
    <mxGraphModel dx="1195" dy="667" grid="1" gridSize="10" guides="1" tooltips="1" connect="1" arrows="1" fold="1" page="1" pageScale="1" pageWidth="826" pageHeight="1169" background="none" math="0" shadow="0">
      <root>
        <mxCell id="0" />
        <mxCell id="1" parent="0" />
        <mxCell id="30" value="&lt;p style=&quot;margin: 0px; margin-top: 4px; text-align: center; text-decoration: underline;&quot;&gt;&lt;strong&gt;Sturdent&lt;/strong&gt;&lt;/p&gt;&lt;hr&gt;&lt;p style=&quot;margin: 0px; margin-left: 8px;&quot;&gt;st_id&lt;/p&gt;&lt;p style=&quot;margin: 0px; margin-left: 8px;&quot;&gt;Name&lt;/p&gt;&lt;p style=&quot;margin: 0px; margin-left: 8px;&quot;&gt;LName&lt;/p&gt;&lt;p style=&quot;margin: 0px; margin-left: 8px;&quot;&gt;CreatedAt&lt;/p&gt;&lt;p style=&quot;margin: 0px; margin-left: 8px;&quot;&gt;UpdatedAt&lt;/p&gt;&lt;p style=&quot;margin: 0px; margin-left: 8px;&quot;&gt;&lt;br&gt;&lt;/p&gt;" style="verticalAlign=top;align=left;overflow=fill;fontSize=12;fontFamily=Helvetica;html=1;strokeColor=#666666;shadow=1;fillColor=#f5f5f5;fontColor=#333333;" parent="1" vertex="1">
          <mxGeometry x="1470.0000000000002" y="455.0000000000001" width="160" height="130" as="geometry" />
        </mxCell>
        <mxCell id="GuDFr2N2JbEtWHN93wZa-122" value="RFID_System" style="swimlane;whiteSpace=wrap;html=1;fillColor=#ffe6cc;strokeColor=#d79b00;rounded=0;swimlaneLine=1;fillStyle=hatch;" vertex="1" parent="1">
          <mxGeometry x="760" y="940" width="560" height="200" as="geometry" />
        </mxCell>
        <mxCell id="GuDFr2N2JbEtWHN93wZa-124" value="" style="rounded=0;whiteSpace=wrap;html=1;fillColor=#ffe6cc;strokeColor=#d79b00;" vertex="1" parent="GuDFr2N2JbEtWHN93wZa-122">
          <mxGeometry y="20" width="560" height="180" as="geometry" />
        </mxCell>
        <mxCell id="GuDFr2N2JbEtWHN93wZa-126" value="&lt;p style=&quot;margin: 0px; margin-top: 4px; text-align: center; text-decoration: underline;&quot;&gt;&lt;strong&gt;ID&lt;/strong&gt;&lt;/p&gt;&lt;hr&gt;&lt;p style=&quot;margin: 0px; margin-left: 8px;&quot;&gt;st_id&lt;/p&gt;&lt;p style=&quot;margin: 0px; margin-left: 8px;&quot;&gt;RFID&lt;/p&gt;&lt;p style=&quot;margin: 0px; margin-left: 8px;&quot;&gt;&lt;br&gt;&lt;/p&gt;" style="verticalAlign=top;align=left;overflow=fill;fontSize=12;fontFamily=Helvetica;html=1;shadow=1;fillColor=#f8cecc;strokeColor=#b85450;" vertex="1" parent="GuDFr2N2JbEtWHN93wZa-122">
          <mxGeometry x="30" y="40" width="160" height="100" as="geometry" />
        </mxCell>
        <mxCell id="GuDFr2N2JbEtWHN93wZa-129" value="people" style="swimlane;whiteSpace=wrap;html=1;fillColor=#dae8fc;strokeColor=#6c8ebf;rounded=0;swimlaneLine=1;fillStyle=hatch;" vertex="1" parent="1">
          <mxGeometry x="740" y="290" width="560" height="520" as="geometry" />
        </mxCell>
        <mxCell id="GuDFr2N2JbEtWHN93wZa-130" value="" style="rounded=0;whiteSpace=wrap;html=1;fillColor=#dae8fc;strokeColor=#6c8ebf;" vertex="1" parent="GuDFr2N2JbEtWHN93wZa-129">
          <mxGeometry y="20" width="560" height="500" as="geometry" />
        </mxCell>
        <mxCell id="GuDFr2N2JbEtWHN93wZa-132" value="&lt;p style=&quot;margin: 0px; margin-top: 4px; text-align: center; text-decoration: underline;&quot;&gt;&lt;strong&gt;emailaddress&lt;/strong&gt;&lt;/p&gt;&lt;hr&gt;&lt;p style=&quot;margin: 0px; margin-left: 8px;&quot;&gt;st_id&lt;/p&gt;&lt;p style=&quot;margin: 0px; margin-left: 8px;&quot;&gt;Email&lt;/p&gt;&lt;p style=&quot;margin: 0px; margin-left: 8px;&quot;&gt;&lt;br&gt;&lt;/p&gt;" style="verticalAlign=top;align=left;overflow=fill;fontSize=12;fontFamily=Helvetica;html=1;shadow=1;fillColor=#f8cecc;strokeColor=#b85450;" vertex="1" parent="GuDFr2N2JbEtWHN93wZa-129">
          <mxGeometry x="20" y="30" width="160" height="100" as="geometry" />
        </mxCell>
        <mxCell id="GuDFr2N2JbEtWHN93wZa-135" value="&lt;p style=&quot;margin: 0px; margin-top: 4px; text-align: center; text-decoration: underline;&quot;&gt;&lt;strong&gt;phonenumber&lt;/strong&gt;&lt;/p&gt;&lt;hr&gt;&lt;p style=&quot;margin: 0px; margin-left: 8px;&quot;&gt;st_id&lt;/p&gt;&lt;p style=&quot;margin: 0px; margin-left: 8px;&quot;&gt;ph_num&lt;/p&gt;&lt;p style=&quot;margin: 0px; margin-left: 8px;&quot;&gt;&lt;br&gt;&lt;/p&gt;" style="verticalAlign=top;align=left;overflow=fill;fontSize=12;fontFamily=Helvetica;html=1;shadow=1;fillColor=#f8cecc;strokeColor=#b85450;" vertex="1" parent="GuDFr2N2JbEtWHN93wZa-129">
          <mxGeometry x="20" y="150" width="160" height="100" as="geometry" />
        </mxCell>
        <mxCell id="GuDFr2N2JbEtWHN93wZa-138" value="&lt;p style=&quot;margin: 4px 0px 0px; text-align: center;&quot;&gt;&lt;b&gt;&lt;u&gt;personnel_info&lt;/u&gt;&lt;/b&gt;&lt;br&gt;&lt;/p&gt;&lt;hr&gt;&lt;p style=&quot;margin: 0px; margin-left: 8px;&quot;&gt;st_id&lt;/p&gt;&lt;p style=&quot;margin: 0px; margin-left: 8px;&quot;&gt;Father&#39;s_name&lt;/p&gt;&lt;p style=&quot;margin: 0px; margin-left: 8px;&quot;&gt;Mother&#39;s_name&lt;/p&gt;&lt;p style=&quot;margin: 0px; margin-left: 8px;&quot;&gt;DOB&lt;/p&gt;&lt;p style=&quot;margin: 0px; margin-left: 8px;&quot;&gt;POB&lt;/p&gt;&lt;p style=&quot;margin: 0px; margin-left: 8px;&quot;&gt;Address&lt;/p&gt;&lt;p style=&quot;margin: 0px; margin-left: 8px;&quot;&gt;Gender&lt;/p&gt;" style="verticalAlign=top;align=left;overflow=fill;fontSize=12;fontFamily=Helvetica;html=1;shadow=1;fillColor=#f8cecc;strokeColor=#b85450;" vertex="1" parent="GuDFr2N2JbEtWHN93wZa-129">
          <mxGeometry x="20" y="270" width="160" height="140" as="geometry" />
        </mxCell>
        <mxCell id="GuDFr2N2JbEtWHN93wZa-133" style="edgeStyle=orthogonalEdgeStyle;rounded=0;orthogonalLoop=1;jettySize=auto;html=1;exitX=0;exitY=0.25;exitDx=0;exitDy=0;entryX=1;entryY=0.25;entryDx=0;entryDy=0;" edge="1" parent="1" source="30" target="GuDFr2N2JbEtWHN93wZa-132">
          <mxGeometry relative="1" as="geometry">
            <mxPoint x="1460" y="487.20000000000005" as="targetPoint" />
            <Array as="points">
              <mxPoint x="1190" y="488" />
              <mxPoint x="1190" y="345" />
            </Array>
          </mxGeometry>
        </mxCell>
        <mxCell id="GuDFr2N2JbEtWHN93wZa-137" style="edgeStyle=orthogonalEdgeStyle;rounded=0;orthogonalLoop=1;jettySize=auto;html=1;exitX=0;exitY=0.25;exitDx=0;exitDy=0;entryX=1;entryY=0.25;entryDx=0;entryDy=0;" edge="1" parent="1" source="30" target="GuDFr2N2JbEtWHN93wZa-135">
          <mxGeometry relative="1" as="geometry">
            <Array as="points">
              <mxPoint x="1190" y="488" />
              <mxPoint x="1190" y="465" />
            </Array>
          </mxGeometry>
        </mxCell>
        <mxCell id="GuDFr2N2JbEtWHN93wZa-139" style="edgeStyle=orthogonalEdgeStyle;rounded=0;orthogonalLoop=1;jettySize=auto;html=1;exitX=0;exitY=0.25;exitDx=0;exitDy=0;entryX=1;entryY=0.25;entryDx=0;entryDy=0;" edge="1" parent="1" source="30" target="GuDFr2N2JbEtWHN93wZa-138">
          <mxGeometry relative="1" as="geometry">
            <Array as="points">
              <mxPoint x="1190" y="488" />
              <mxPoint x="1190" y="595" />
            </Array>
          </mxGeometry>
        </mxCell>
        <mxCell id="GuDFr2N2JbEtWHN93wZa-141" value="Classes/Grades&lt;br&gt;" style="swimlane;whiteSpace=wrap;html=1;fillColor=#e1d5e7;strokeColor=#9673a6;rounded=0;swimlaneLine=1;fillStyle=hatch;" vertex="1" parent="1">
          <mxGeometry x="1710" y="260" width="560" height="670" as="geometry" />
        </mxCell>
        <mxCell id="GuDFr2N2JbEtWHN93wZa-142" value="" style="rounded=0;whiteSpace=wrap;html=1;fillColor=#e1d5e7;strokeColor=#9673a6;" vertex="1" parent="GuDFr2N2JbEtWHN93wZa-141">
          <mxGeometry y="20" width="560" height="650" as="geometry" />
        </mxCell>
        <mxCell id="GuDFr2N2JbEtWHN93wZa-143" value="&lt;p style=&quot;margin: 0px; margin-top: 4px; text-align: center; text-decoration: underline;&quot;&gt;&lt;strong&gt;StudentGrade&lt;/strong&gt;&lt;/p&gt;&lt;hr&gt;&lt;p style=&quot;margin: 0px; margin-left: 8px;&quot;&gt;st_id&lt;/p&gt;&lt;p style=&quot;margin: 0px; margin-left: 8px;&quot;&gt;course_id&lt;/p&gt;&lt;p style=&quot;margin: 0px; margin-left: 8px;&quot;&gt;&lt;br&gt;&lt;/p&gt;&lt;p style=&quot;margin: 0px; margin-left: 8px;&quot;&gt;&lt;br&gt;&lt;/p&gt;" style="verticalAlign=top;align=left;overflow=fill;fontSize=12;fontFamily=Helvetica;html=1;shadow=1;fillColor=#f8cecc;strokeColor=#b85450;" vertex="1" parent="GuDFr2N2JbEtWHN93wZa-141">
          <mxGeometry x="195" y="70" width="160" height="290" as="geometry" />
        </mxCell>
        <mxCell id="GuDFr2N2JbEtWHN93wZa-144" value="&lt;p style=&quot;margin: 0px; margin-top: 4px; text-align: center; text-decoration: underline;&quot;&gt;&lt;b&gt;Subjecttbl&lt;/b&gt;&lt;/p&gt;&lt;hr&gt;&lt;p style=&quot;margin: 0px; margin-left: 8px;&quot;&gt;subject_id&lt;/p&gt;&lt;p style=&quot;margin: 0px; margin-left: 8px;&quot;&gt;subject_name&lt;/p&gt;&lt;p style=&quot;margin: 0px; margin-left: 8px;&quot;&gt;&lt;br&gt;&lt;/p&gt;" style="verticalAlign=top;align=left;overflow=fill;fontSize=12;fontFamily=Helvetica;html=1;shadow=1;fillColor=#f8cecc;strokeColor=#b85450;" vertex="1" parent="GuDFr2N2JbEtWHN93wZa-141">
          <mxGeometry x="390" y="440" width="160" height="100" as="geometry" />
        </mxCell>
        <mxCell id="GuDFr2N2JbEtWHN93wZa-149" value="&lt;p style=&quot;margin: 0px; margin-top: 4px; text-align: center; text-decoration: underline;&quot;&gt;&lt;strong&gt;Coursetbl&lt;/strong&gt;&lt;/p&gt;&lt;hr&gt;&lt;p style=&quot;margin: 0px; margin-left: 8px;&quot;&gt;course_id&lt;/p&gt;&lt;p style=&quot;margin: 0px; margin-left: 8px;&quot;&gt;couse_name&lt;/p&gt;&lt;p style=&quot;margin: 0px; margin-left: 8px;&quot;&gt;&lt;br&gt;&lt;/p&gt;&lt;p style=&quot;margin: 0px; margin-left: 8px;&quot;&gt;&lt;br&gt;&lt;/p&gt;" style="verticalAlign=top;align=left;overflow=fill;fontSize=12;fontFamily=Helvetica;html=1;shadow=1;fillColor=#f8cecc;strokeColor=#b85450;" vertex="1" parent="GuDFr2N2JbEtWHN93wZa-141">
          <mxGeometry x="390" y="200" width="160" height="100" as="geometry" />
        </mxCell>
        <mxCell id="GuDFr2N2JbEtWHN93wZa-150" value="&lt;p style=&quot;margin: 0px; margin-top: 4px; text-align: center; text-decoration: underline;&quot;&gt;&lt;strong&gt;subject_timetable&lt;/strong&gt;&lt;/p&gt;&lt;hr&gt;&lt;p style=&quot;margin: 0px; margin-left: 8px;&quot;&gt;course_id&lt;/p&gt;&lt;p style=&quot;margin: 0px; margin-left: 8px;&quot;&gt;subjectid&lt;/p&gt;&lt;p style=&quot;margin: 0px; margin-left: 8px;&quot;&gt;starttime&lt;/p&gt;&lt;p style=&quot;margin: 0px; margin-left: 8px;&quot;&gt;endtime&lt;/p&gt;&lt;p style=&quot;margin: 0px; margin-left: 8px;&quot;&gt;&lt;br&gt;&lt;/p&gt;" style="verticalAlign=top;align=left;overflow=fill;fontSize=12;fontFamily=Helvetica;html=1;shadow=1;fillColor=#f8cecc;strokeColor=#b85450;" vertex="1" parent="GuDFr2N2JbEtWHN93wZa-141">
          <mxGeometry x="390" y="320" width="160" height="100" as="geometry" />
        </mxCell>
      </root>
    </mxGraphModel>
  </diagram>
</mxfile>
